<svg xmlns="http://www.w3.org/2000/svg" viewBox="0 0 228.29 150.53"><title>Asset 6</title><g id="Layer_2" data-name="Layer 2"><g id="Layer_11" data-name="Layer 11"><path d="M127.76,11.74l-2.1-.07c-.27,1.17-1,2.41-.75,3.49.71,3.91,1.25,7.94,2.68,11.6,3.54,9.06,1.73,17.56-2.81,25.38-7.12,12.25-10.48,25-8.44,39.18.18,1.31-1.21,2.85-1.87,4.29-1.75-1.06-5.13-2.5-5-3.12.92-4-1.31-6.91-2.35-10.28A28.27,28.27,0,0,1,106,73.34a12.45,12.45,0,0,1,1.82-6.55c4.33-6.29,9.7-11.93,13.46-18.51,4.06-7.12,6.91-15.28,1.69-23.07-3.86-5.75-8.66-10.84-15.42-13.77-9.29-4-17,.28-17.91,10.45-.3,3.22-.86,6.41-1.35,9.93-3.24-.88-5.75-1.74-8.32-2.17A3.25,3.25,0,0,0,77.15,31a3,3,0,0,0,1.2,2.72c4.69,1.83,9.48,3.39,14.32,5.07.4-6.56.41-12.36,1.2-18.06a7.15,7.15,0,0,1,9.1-6.19c7.66,2.09,13.15,7.48,17,13.85,1.74,2.87.86,7.62.46,11.44-.69,6.55-3.71,8.41-10.26,7.27-11.8-2-23.55-4.91-35.44-5.81C51.94,39.53,34.16,28.7,18.83,12.78c-2.08-2.16-3.37-2-5.29-.1-3.16,3.16-6.17,6.62-9.82,9.11C-.1,24.4.66,27.63,0,32.31l3.84-3C13.65,37,22.94,44.6,32.53,51.76a73.62,73.62,0,0,0,33.4,13.55c9.45,1.42,19.16,1.23,28.77,1.5,1.84,0,3.71-1.11,5.57-1.72C98.66,64,97.18,62.51,95.4,62s-4-.15-6-.25c-5.81-.29-11.63-.49-17.42-1C58.41,59.57,45.39,56.43,34.29,48,27,42.39,19.87,36.67,13.07,30.57c-1.86-1.67-3.39-5.17-3-7.49s3.36-4.21,5.34-6.45c1.15.9,1.94,1.47,2.67,2.12,11.2,9.87,23.08,19.1,37.47,23.3,12.2,3.57,25,4.89,37.62,7.15,6.29,1.13,12.6,2.15,19.68,3.35-3,4.1-5.06,7.55-7.75,10.4-3.35,3.54-3.86,7.41-3.24,12,.85,6.25,1.51,12.55,1.86,18.84.39,7,.2,6.88,7,6.54a28.44,28.44,0,0,1,5.93.62c2.55.4,3.84-.46,3.64-3.18-.27-3.65-.75-7.31-.68-11,.1-5.54.58-11.07.92-16.79,2.48.78,3.83,1.58,5.17,1.57,10.79-.09,21.6-.07,32.37-.62,7.29-.38,14.53-1.62,21.79-2.53,5.87-.74,6.69.12,6.27,6-.36,4.82-.48,9.66-.44,14.48,0,1.54.88,3.07,1.63,5.45,2-2.69,3-4.72,4.51-6.05,8.09-6.91,16.52-13.44,24.45-20.52a112.19,112.19,0,0,0,11.93-13.17c.51-.62-.93-2.81-1.47-4.28-1.33.61-3.81,1.27-3.79,1.83.24,6.17-4.57,8.46-8.37,11.56-7.47,6.09-14.92,12.21-22.42,18.27A18.9,18.9,0,0,1,189,83.46c.31-3.23.51-5.68.79-8.12,1.31-11.62-.08-12.26-11.59-11.24-17.05,1.51-34.2,1.84-51.31,2.65-3.8.18-4.42-1.57-2.67-4.63l6.14-10.7c3.1.59,5.65,1.27,8.24,1.55,14.07,1.53,28.13,2.35,42.3.75,4.35-.49,5.22-1.94,5.08-5.89-.14-3.75.72-7.52,1.26-12.35,10.26,5.76,19.06,10.77,28,15.6,1.36.74,3.2.61,4.81.89-.86-1.49-1.36-3.61-2.66-4.38-10.26-6.1-20.67-12-31.88-18.36-1.33,5.24-3.05,10.23-3.76,15.37-.47,3.38-1.8,5-4.9,4.9-15-.27-30-.67-45.64-1C135.62,34.71,131.07,23.31,127.76,11.74ZM126,136.13c-.78-3-1.1-6.22-2.44-8.94-1.59-3.22-3.77-6.53-8.22-6.14-5.38.48-10.07,2.37-12.71,7.49-3.05,5.92-3.89,12.05-.4,18.05a7.76,7.76,0,0,0,4.29,3C116.38,152.47,125.52,148.75,126,136.13Zm-2.4-125.68C122.18,5,119,1.75,113.72,1c-2.78-.41-5.6-.7-8.41-.91C93.23-.86,79,10.29,77.92,21.59c-.13,1.32.92,2.75,1.42,4.13.87-1.22,2.26-2.35,2.53-3.69,1.8-9.16,11.45-17.58,20.77-17.81C110.23,4,117.47,5.07,123.59,10.45Z" style="fill:#fff"/><path d="M127.76,11.74c3.31,11.57,7.86,23,3.43,36.72,15.6.37,30.62.77,45.64,1,3.1.06,4.43-1.52,4.9-4.9.71-5.14,2.43-10.13,3.76-15.37,11.21,6.41,21.62,12.26,31.88,18.36,1.3.77,1.8,2.89,2.66,4.38-1.61-.28-3.45-.15-4.81-.89-8.9-4.83-17.7-9.84-28-15.6-.54,4.83-1.4,8.6-1.26,12.35.14,4-.73,5.4-5.08,5.89-14.17,1.6-28.23.78-42.3-.75-2.59-.28-5.14-1-8.24-1.55l-6.14,10.7c-1.75,3.06-1.13,4.81,2.67,4.63,17.11-.81,34.26-1.14,51.31-2.65,11.51-1,12.9-.38,11.59,11.24-.28,2.44-.48,4.89-.79,8.12a18.9,18.9,0,0,0,3.11-1.53c7.5-6.06,15-12.18,22.42-18.27,3.8-3.1,8.61-5.39,8.37-11.56,0-.56,2.46-1.22,3.79-1.83.54,1.47,2,3.66,1.47,4.28a112.19,112.19,0,0,1-11.93,13.17c-7.93,7.08-16.36,13.61-24.45,20.52-1.56,1.33-2.54,3.36-4.51,6.05-.75-2.38-1.62-3.91-1.63-5.45,0-4.82.08-9.66.44-14.48.42-5.84-.4-6.7-6.27-6-7.26.91-14.5,2.15-21.79,2.53-10.77.55-21.58.53-32.37.62-1.34,0-2.69-.79-5.17-1.57-.34,5.72-.82,11.25-.92,16.79-.07,3.65.41,7.31.68,11,.2,2.72-1.09,3.58-3.64,3.18a28.44,28.44,0,0,0-5.93-.62c-6.77.34-6.58.41-7-6.54-.35-6.29-1-12.59-1.86-18.84-.62-4.55-.11-8.42,3.24-12,2.69-2.85,4.74-6.3,7.75-10.4-7.08-1.2-13.39-2.22-19.68-3.35-12.57-2.26-25.42-3.58-37.62-7.15-14.39-4.2-26.27-13.43-37.47-23.3-.73-.65-1.52-1.22-2.67-2.12-2,2.24-4.95,4.13-5.34,6.45s1.14,5.82,3,7.49c6.8,6.1,14,11.82,21.22,17.38C45.39,56.43,58.41,59.57,72,60.73c5.79.5,11.61.7,17.42,1,2,.1,4.12-.31,6,.25s3.26,2,4.87,3.12c-1.86.61-3.73,1.77-5.57,1.72-9.61-.27-19.32-.08-28.77-1.5a73.62,73.62,0,0,1-33.4-13.55C22.94,44.6,13.65,37,3.84,29.34L0,32.31c.66-4.68-.1-7.91,3.72-10.52,3.65-2.49,6.66-5.95,9.82-9.11,1.92-1.92,3.21-2.06,5.29.1C34.16,28.7,51.94,39.53,74.76,41.26c11.89.9,23.64,3.76,35.44,5.81,6.55,1.14,9.57-.72,10.26-7.27.4-3.82,1.28-8.57-.46-11.44-3.88-6.37-9.37-11.76-17-13.85a7.15,7.15,0,0,0-9.1,6.19c-.79,5.7-.8,11.5-1.2,18.06-4.84-1.68-9.63-3.24-14.32-5.07A3,3,0,0,1,77.15,31a3.25,3.25,0,0,1,2.77-1.32c2.57.43,5.08,1.29,8.32,2.17.49-3.52,1.05-6.71,1.35-9.93,1-10.17,8.62-14.48,17.91-10.45,6.76,2.93,11.56,8,15.42,13.77,5.22,7.79,2.37,15.95-1.69,23.07-3.76,6.58-9.13,12.22-13.46,18.51A12.45,12.45,0,0,0,106,73.34a28.27,28.27,0,0,0,1.18,8.87c1,3.37,3.27,6.3,2.35,10.28-.14.62,3.24,2.06,5,3.12.66-1.44,2-3,1.87-4.29-2-14.15,1.32-26.93,8.44-39.18,4.54-7.82,6.35-16.32,2.81-25.38-1.43-3.66-2-7.69-2.68-11.6-.2-1.08.48-2.32.75-3.49Z"/><path d="M126,136.13c-.47,12.62-9.61,16.34-19.48,13.5a7.76,7.76,0,0,1-4.29-3c-3.49-6-2.65-12.13.4-18.05,2.64-5.12,7.33-7,12.71-7.49,4.45-.39,6.63,2.92,8.22,6.14C124.89,129.91,125.21,133.13,126,136.13Zm-15.79,2,1.38-.48c-1.15,5.89,2.33,5.46,5.61,5.35,3.91-.12,4.53-2.83,4.38-5.85a26.3,26.3,0,0,0-1.08-7.26c-1.42-4.12-4.28-5.44-8.62-3.88-7.41,2.66-10,11-5.11,18.45Z"/><path d="M123.59,10.45c-6.12-5.38-13.36-6.42-21-6.23-9.32.23-19,8.65-20.77,17.81-.27,1.34-1.66,2.47-2.53,3.69-.5-1.38-1.55-2.81-1.42-4.13C79,10.29,93.23-.86,105.31.05c2.81.21,5.63.5,8.41.91C119,1.75,122.18,5,123.59,10.45Z"/><path d="M110.2,138.17l-3.44,6.33c-4.88-7.4-2.3-15.79,5.11-18.45,4.34-1.56,7.2-.24,8.62,3.88a26.3,26.3,0,0,1,1.08,7.26c.15,3-.47,5.73-4.38,5.85-3.28.11-6.76.54-5.61-5.35Z" style="fill:#fff"/></g></g></svg>