<svg xmlns="http://www.w3.org/2000/svg" viewBox="0 0 132.41 156.39"><title>Asset 7</title><g id="Layer_2" data-name="Layer 2"><g id="Layer_12" data-name="Layer 12"><path d="M82.76,132.9h1.59c.47-1.3,1-2.59,1.42-3.89,2.31-6.72,5.5-13,11.26-17.34,9.68-7.32,19.62-14.31,29.39-21.52,2.24-1.65,4.24-3.65,6-5.18-3.92-2.53-7.28-4.82-10.77-6.89a59.51,59.51,0,0,0-5.85-2.67A32.17,32.17,0,0,1,110.55,73c-9-6.25-17.94-12.67-26.95-18.94-3.72-2.58-4.93-1.94-5.22,2.47-.31,4.62-.48,9.26-1,13.86-.12,1-1.58,2.65-2.49,2.69-5.39.26-10.8.13-16.35.13-1-4.55-2.18-9-2.78-13.61-.16-1.21,1.19-3.21,2.39-3.88,3.17-1.79,7-2.54,9.89-4.64,4.37-3.17,9.84-6.39,11.84-10.91a34.72,34.72,0,0,0-.35-29.95C76,3.05,68.05-.47,60.1.05,54.27.43,49.69,2.76,44.92,5.64c-5.17,3.13-10.48,6.85-17.21,3.7a3.11,3.11,0,0,0-2.92,1c-.36.64.2,2.22.85,3,2.1,2.38,5.11,4.25,4.1,7.6l-5.87.75c1.05,1.63,1.81,3.57,3.2,4.82,3.09,2.81,6,5.35,6.71,10,.58,3.75,4.06,4.43,7.68,4.42a71.94,71.94,0,0,1-1.07-7.76,7.86,7.86,0,0,1,1.07-4.59c3.64-5,14-8.32,19.89-6.31,2.64.91,4.26,2.37,3.87,5.94-1,9.43-4.81,16.51-14.31,19.53-3.62,1.16-3.55,3.4-2.93,6.64.94,4.86,1.11,9.87,1.62,14.82.35,3.45-1.48,4.48-4.53,4-1.64-.24-3.24-.67-4.86-1a87.55,87.55,0,0,0-8.71-1.71c-3.87-.39-7.81-.1-11.66-.56-5.42-.65-10.79-1.79-16.19-2.59-3-.46-3.84.63-3.61,4,.7,10.41,1,20.86,1.06,31.3,0,4.12.21,4.42,4.28,3.17a44.64,44.64,0,0,1,10.23-1.93c7.78-.51,15.59-.74,23.39-.92,10.91-.24,9.36-1.25,9.83,9.41a23.74,23.74,0,0,0,1.11,4.94c4.68-2.23,8.29-4.36,12.17-5.69,5.3-1.83,5.59-2.17,2.27-6.36-.53-.67-.69-1.64-1.35-3.33,4.63,0,8.58.1,12.52,0,2.93-.1,4.17,1,4.35,4,.42,7.12,1,14.24,1.7,21.35A51.29,51.29,0,0,0,82.76,132.9ZM40.27,145.7l.24,0c0,.66,0,1.33,0,2,.41,8.2,4.11,10.52,11.5,7.26a5.19,5.19,0,0,1,2.37-.56c3.62.27,5.09-2.13,5.87-4.95a24,24,0,0,0,.82-6.86c-.14-6.6-3.22-9.29-11.07-10-5.07-.46-8.18,2.18-9.39,8.17A36.52,36.52,0,0,0,40.27,145.7Z" style="fill:#fff"/><path d="M82.76,132.9a51.29,51.29,0,0,1-1.16-5.72c-.66-7.11-1.28-14.23-1.7-21.35-.18-3-1.42-4.13-4.35-4-3.94.14-7.89,0-12.52,0,.66,1.69.82,2.66,1.35,3.33,3.32,4.19,3,4.53-2.27,6.36-3.88,1.33-7.49,3.46-12.17,5.69a23.74,23.74,0,0,1-1.11-4.94c-.47-10.66,1.08-9.65-9.83-9.41-7.8.18-15.61.41-23.39.92a44.64,44.64,0,0,0-10.23,1.93c-4.07,1.25-4.25,1-4.28-3.17C1,92.11.74,81.66,0,71.25c-.23-3.35.57-4.44,3.61-4,5.4.8,10.77,1.94,16.19,2.59,3.85.46,7.79.17,11.66.56a87.55,87.55,0,0,1,8.71,1.71c1.62.33,3.22.76,4.86,1,3,.46,4.88-.57,4.53-4-.51-5-.68-10-1.62-14.82-.62-3.24-.69-5.48,2.93-6.64,9.5-3,13.29-10.1,14.31-19.53.39-3.57-1.23-5-3.87-5.94-5.84-2-16.25,1.26-19.89,6.31a7.86,7.86,0,0,0-1.07,4.59,71.94,71.94,0,0,0,1.07,7.76c-3.62,0-7.1-.67-7.68-4.42-.73-4.64-3.62-7.18-6.71-10-1.39-1.25-2.15-3.19-3.2-4.82l5.87-.75c1-3.35-2-5.22-4.1-7.6-.65-.74-1.21-2.32-.85-3a3.11,3.11,0,0,1,2.92-1c6.73,3.15,12-.57,17.21-3.7C49.69,2.76,54.27.43,60.1.05c7.95-.52,15.94,3,19.39,10.13a34.72,34.72,0,0,1,.35,30C77.84,44.65,72.37,47.87,68,51c-2.88,2.1-6.72,2.85-9.89,4.64-1.2.67-2.55,2.67-2.39,3.88.6,4.57,1.8,9.06,2.78,13.61,5.55,0,11,.13,16.35-.13.91,0,2.37-1.67,2.49-2.69.56-4.6.73-9.24,1-13.86.29-4.41,1.5-5.05,5.22-2.47,9,6.27,17.92,12.69,27,18.94a32.17,32.17,0,0,0,5.24,2.45,59.51,59.51,0,0,1,5.85,2.67c3.49,2.07,6.85,4.36,10.77,6.89-1.75,1.53-3.75,3.53-6,5.18-9.77,7.21-19.71,14.2-29.39,21.52-5.76,4.35-9,10.62-11.26,17.34-.45,1.3-1,2.59-1.42,3.89Zm-.85-74.76c-.16,5.54-.49,9.74-.34,13.92.17,4.58-.58,5.61-5.23,5.67-4.45,0-8.91.15-13.35,0-3.15-.07-4.2,1.42-3.8,4.31.53,3.78,1.2,7.55,1.57,11.34.29,2.89,1.71,4.19,4.52,4.1,5.82-.17,11.63-.37,17.44-.54,1.84,0,3.68,0,5.51,0l.43,1c-7.7,6.08-3.49,14-3.86,21.41,9.73-14.91,25.67-22.26,38.37-32.59ZM5.24,100.58c5.88-.5,11.12-1,16.38-1.35,7.63-.43,15.28-.72,22.92-1,2.24-.07,4-.38,4-3.18.06-4.66.44-9.33.16-14-.07-1.19-2-3.08-3.23-3.22-3.91-.42-7.9,0-11.84-.22a71.27,71.27,0,0,1-10.7-1.43c-4.7-1-9.33-2.37-14-3.66-3-.82-4.69.28-4.62,3.29C4.54,84.13,4.93,92.4,5.24,100.58Zm49.5-50.15,1.58,1.89c6.86-3.39,14-6.3,19.25-12.35a6,6,0,0,0,1.54-3.06c.59-5.92,2.18-12.06,1.23-17.75C75.9,4.66,62.61,1.38,51.76,6.56,47.9,8.4,44.38,11,40.47,12.65c-8.61,3.69-8.85,4.06-4.18,12.44a8.8,8.8,0,0,0,1.05,1.2c6.93-6.35,14.47-10.62,24.33-8.22,5.34,1.3,7.72,3.45,7.41,8.91-.51,8.86-2.64,17.16-11.31,21.94C56.78,49.47,55.75,49.93,54.74,50.43Zm0,29.81-1.32,0c-.24,4.57-.62,9.15-.64,13.73,0,1.1,1.15,2.21,1.77,3.32.68-1.1,2-2.26,1.91-3.31C56.14,89.36,55.38,84.81,54.77,80.24ZM52.58,109l1.82.68c1.57-1.7,6.31-.74,4.34-5.24-.52-1.19-2.64-1.68-4-2.49Z"/><path d="M40.27,145.7a36.52,36.52,0,0,1,.35-4.92c1.21-6,4.32-8.63,9.39-8.17,7.85.7,10.93,3.39,11.07,10a24,24,0,0,1-.82,6.86c-.78,2.82-2.25,5.22-5.87,4.95A5.19,5.19,0,0,0,52,155c-7.39,3.26-11.09.94-11.5-7.26,0-.66,0-1.33,0-2Zm16.31-3.08c-.7-3.48-3.34-5.29-6.67-4.51-1.86.44-4.24,2.91-4.49,4.72s1.39,4.66,3.06,5.77c2.47,1.63,3.46-1,4.57-2.9C53.72,144.51,55.2,143.78,56.58,142.62Z"/><path d="M81.91,58.14l41.26,28.69c-12.7,10.33-28.64,17.68-38.37,32.59C85.17,112,81,104.09,88.66,98l-.43-1c-1.83,0-3.67,0-5.51,0-5.81.17-11.62.37-17.44.54-2.81.09-4.23-1.21-4.52-4.1-.37-3.79-1-7.56-1.57-11.34-.4-2.89.65-4.38,3.8-4.31,4.44.1,8.9,0,13.35,0,4.65-.06,5.4-1.09,5.23-5.67C81.42,67.88,81.75,63.68,81.91,58.14Z" style="fill:#fff"/><path d="M5.24,100.58c-.31-8.18-.7-16.45-.89-24.71C4.28,72.86,6,71.76,9,72.58c4.64,1.29,9.27,2.65,14,3.66a71.27,71.27,0,0,0,10.7,1.43c3.94.25,7.93-.2,11.84.22,1.23.14,3.16,2,3.23,3.22.28,4.64-.1,9.31-.16,14,0,2.8-1.77,3.11-4,3.18-7.64.25-15.29.54-22.92,1C16.36,99.53,11.12,100.08,5.24,100.58Z" style="fill:#fff"/><path d="M54.74,50.43c1-.5,2-1,3-1.51C66.44,44.14,68.57,35.84,69.08,27c.31-5.46-2.07-7.61-7.41-8.91-9.86-2.4-17.4,1.87-24.33,8.22a8.8,8.8,0,0,1-1.05-1.2c-4.67-8.38-4.43-8.75,4.18-12.44C44.38,11,47.9,8.4,51.76,6.56c10.85-5.18,24.14-1.9,26.58,12.6,1,5.69-.64,11.83-1.23,17.75A6,6,0,0,1,75.57,40c-5.22,6.05-12.39,9-19.25,12.35Z" style="fill:#fff"/><path d="M54.77,80.24c.61,4.57,1.37,9.12,1.72,13.7.08,1-1.23,2.21-1.91,3.31C54,96.14,52.8,95,52.81,93.93c0-4.58.4-9.16.64-13.73Z" style="fill:#fff"/><path d="M52.58,109,54.72,102c1.38.81,3.5,1.3,4,2.49,2,4.5-2.77,3.54-4.34,5.24Z" style="fill:#fff"/><path d="M56.58,142.62c-1.38,1.16-2.86,1.89-3.53,3.08-1.11,1.93-2.1,4.53-4.57,2.9-1.67-1.11-3.31-4-3.06-5.77s2.63-4.28,4.49-4.72C53.24,137.33,55.88,139.14,56.58,142.62Z" style="fill:#fff"/></g></g></svg>