<svg xmlns="http://www.w3.org/2000/svg" viewBox="0 0 125.13 151.55"><title>Asset 8</title><g id="Layer_2" data-name="Layer 2"><g id="Layer_14" data-name="Layer 14"><path d="M39.59,91.93,38,90.43c-15.18,11.31-25.93,27-38,39.77,6.13,6.05,11.72,11.63,17.39,17.13,1.59,1.53,3.41,2.82,5.13,4.22q.39-2.88.79-5.76a4,4,0,0,1,.08-.5c3.85-14.77,13.49-25.83,23.25-37.22,1.07,2.36,1.9,4.17,2.72,6l.39-1.59L79,107.36c1.56-.27,3.12-.46,4.68-.69a24.27,24.27,0,0,0-1.16-5.1A28,28,0,0,0,79,96.13c-3.84-4.94-5.3-10.23-3.12-16.34a7,7,0,0,0,.06-2.92c3.37-1.14,6.14-2.64,9-2.94,5.45-.56,11-.5,16.45-.56,3.65,0,4.61-1.89,4-5.17-.48-2.74-1.33-5.55-1.09-8.25.54-5.94-2.3-8.92-7.3-9.12L86.17,54c0-1.39-.14-1.88,0-2,8.86-7.07,15.3-16.06,21-25.76,1.49-2.57,4-3.65,7.3-2s6.66,2.46,10.66,3.88c0-9.24.12-17.52-.17-25.78,0-.86-2.46-2.34-3.77-2.33-7,.05-13.9.6-20.85.75C93,.9,85.76.78,78.25.78,79.7,8.93,83.8,13.54,89.93,16.42,85.48,22.37,81.4,27.62,77.55,33,68,46.44,68,46.46,69.44,49.3,77.56,38.93,85.78,28.54,93.77,18c.62-.82,0-3.25-.82-4.36-2-2.79-4.51-5.24-7.42-8.52H121V22a121.78,121.78,0,0,0-10.89-5.66c-1-.4-3.67.77-3.92,1.67-2.72,9.77-8.69,17.43-15.35,24.69-2.9,3.16-6.31,6-8.69,9.45-2.26,3.35-6.33,5.58-10.32,4.41a13.23,13.23,0,0,0-3.41,0c-2.6-12.08-2.18-24.5-1-36.93.32-3.22-2.11-5.31-5-4.58-5.89,1.49-11.8,3-17.78,4.06-4.31.78-8.74.88-12.57,1.23C34.55,36.67,40.21,52.47,35.48,69a6.07,6.07,0,0,1-.62-4.53c.59-3.26-.84-4.63-4-4.81-4.25-.25-8.49-.8-12.75-.89-1.31,0-2.64,1-4,1.55.5,1.11,1,2.2,1.52,3.31.71,1.63,1.83,3.23,2,4.93.7,6.44,1,12.91,1.63,19.37a48.91,48.91,0,0,0,1,5.23l24.65-7c-.19,8.4,4.17,15.39-3.37,22.7-10,9.65-18,21.22-21.34,35.34L4.87,129.59Z" style="fill:#fff"/><path d="M39.59,91.93,4.87,129.59l15.37,14.63c3.34-14.12,11.37-25.69,21.34-35.34,7.54-7.31,3.18-14.3,3.37-22.7l-24.65,7a48.91,48.91,0,0,1-1-5.23c-.59-6.46-.93-12.93-1.63-19.37-.18-1.7-1.3-3.3-2-4.93-.49-1.11-1-2.2-1.52-3.31,1.32-.55,2.65-1.58,4-1.55,4.26.09,8.5.64,12.75.89,3.15.18,4.58,1.55,4,4.81A6.07,6.07,0,0,0,35.48,69c4.73-16.52-.93-32.32-3.39-48.71,3.83-.35,8.26-.45,12.57-1.23,6-1.07,11.89-2.57,17.78-4.06,2.88-.73,5.31,1.36,5,4.58-1.22,12.43-1.64,24.85,1,36.93a13.23,13.23,0,0,1,3.41,0c4,1.17,8.06-1.06,10.32-4.41,2.38-3.5,5.79-6.29,8.69-9.45,6.66-7.26,12.63-14.92,15.35-24.69.25-.9,3-2.07,3.92-1.67A121.78,121.78,0,0,1,121,22V5.09H85.53c2.91,3.28,5.39,5.73,7.42,8.52.82,1.11,1.44,3.54.82,4.36-8,10.57-16.21,21-24.33,31.33C68,46.46,68,46.44,77.55,33c3.85-5.4,7.93-10.65,12.38-16.6C83.8,13.54,79.7,8.93,78.25.78c7.51,0,14.79.12,22.06,0,7-.15,13.9-.7,20.85-.75,1.31,0,3.74,1.47,3.77,2.33.29,8.26.17,16.54.17,25.78-4-1.42-7.49-2.33-10.66-3.88s-5.81-.54-7.3,2C101.49,36,95.05,45,86.19,52c-.16.12,0,.61,0,2l10.89-3.19c5,.2,7.84,3.18,7.3,9.12-.24,2.7.61,5.51,1.09,8.25.58,3.28-.38,5.13-4,5.17-5.49.06-11,0-16.45.56-2.9.3-5.67,1.8-9,2.94a7,7,0,0,1-.06,2.92c-2.18,6.11-.72,11.4,3.12,16.34a28,28,0,0,1,3.49,5.44,24.27,24.27,0,0,1,1.16,5.1c-1.56.23-3.12.42-4.68.69l-29.21,5.09L49.36,114c-.82-1.8-1.65-3.61-2.72-6-9.76,11.39-19.4,22.45-23.25,37.22a4,4,0,0,0-.08.5q-.4,2.88-.79,5.76c-1.72-1.4-3.54-2.69-5.13-4.22C11.72,141.83,6.13,136.25,0,130.2c12.1-12.79,22.85-28.46,38-39.77ZM64.72,63.16l1.19,32.52,1.61-.05c.33-2.82.66-5.64,1.06-9,2.54,3,3.39,11,1.62,12.91a4.71,4.71,0,0,1-3,1c-2.73.13-5.46,0-9.63,0-.34-4.86-.77-11-1.11-15.94-2,2.83-4.38,6.06-6.69,9.33a2.19,2.19,0,0,0-.41,1.38c.49,4,1,8.07,1.59,12.27l24.93-4.76c-1.43-9.38-2.74-18-4.06-26.63l-1.21.11V85C64.71,77.86,71.3,68.62,64.72,63.16ZM45.56,33.8l-1.63.11c.3,4.22.25,8.51,1,12.65,1,5.67,3.17,11.17,3.8,16.86.75,6.75.34,13.62.59,20.44a24.53,24.53,0,0,0,1.15,4.79L52,88.44c.35-5.72,1-11.45,1-17.18s.11-11.37,4.35-16.5c.49,3.25,1,6.5,1.48,9.75l.9.07,4.48-20.93-1.34-.3-3.58,3.09-1.46-6c-1.24,3-2.11,5.13-3.18,7.72l-4.25-3c.42,4.25.78,7.93,1.15,11.61L49.13,57ZM60.88,33c.17-3.08,0-5.1.43-7,.88-4.07-.65-5.16-4.5-4.41-4.07.79-8.34.8-12.25,2-2.3.73-5.3,2.85-5.8,4.88-.84,3.45,0,7.33.19,11l1.32-.09C41,35,41.81,30.56,42.58,26.17c8.22.53,8.4.72,9.72,8.29.34,1.95.83,3.88,1.43,6.63C55,36.27,56,32.42,57.35,27.31Zm-19.8,48c3.48-9.85,4.78-19.68,0-30.32Zm-18.76-17-1,.4c.34,6.71.61,13.43,1.09,20.14.06.82,1.25,1.56,1.91,2.34.52-.89,1.54-1.83,1.46-2.67-.6-6.14-1.38-12.27-2.21-18.38C23.5,65.27,22.76,64.71,22.32,64.1Zm63.53-5.16c-2.87.79-5,.74-5.54,1.65a16.89,16.89,0,0,0-1.83,6.21c-.1.6,1,1.39,1.58,2.09a39.85,39.85,0,0,0,3.06-4C84,63.44,84.58,61.77,85.85,58.94Zm7.49,7.58.9.2a49.08,49.08,0,0,0,2.75-6c.29-.91-.42-2.13-.68-3.21-1,.78-2.65,1.43-2.84,2.38C93,62,93.34,64.29,93.34,66.52Zm-63-1.45L28.4,65V77l.77,0ZM39,84.54l-.58-10.92C34.63,80.57,34.7,82.67,39,84.54ZM85,68.42c5.48.07,5.86-.77,3.88-7.79C87.44,63.41,86.35,65.61,85,68.42Z"/><path d="M64.72,63.16c6.58,5.46,0,14.7,5.89,21.85V76.32l1.21-.11c1.32,8.63,2.63,17.25,4.06,26.63L51,107.6c-.55-4.2-1.1-8.23-1.59-12.27A2.19,2.19,0,0,1,49.77,94c2.31-3.27,4.65-6.5,6.69-9.33.34,4.94.77,11.08,1.11,15.94,4.17,0,6.9.08,9.63,0a4.71,4.71,0,0,0,3-1c1.77-1.92.92-9.89-1.62-12.91-.4,3.36-.73,6.18-1.06,9l-1.61.05Z" style="fill:#fff"/><path d="M45.56,33.8,49.13,57l2.36-.26c-.37-3.68-.73-7.36-1.15-11.61l4.25,3c1.07-2.59,1.94-4.72,3.18-7.72l1.46,6,3.58-3.09,1.34.3L59.67,64.58l-.9-.07c-.49-3.25-1-6.5-1.48-9.75C53.05,59.89,53,65.5,52.94,71.26s-.63,11.46-1,17.18l-1.51.21a24.53,24.53,0,0,1-1.15-4.79c-.25-6.82.16-13.69-.59-20.44-.63-5.69-2.79-11.19-3.8-16.86-.73-4.14-.68-8.43-1-12.65Z" style="fill:#fff"/><path d="M60.88,33l-3.53-5.71c-1.34,5.11-2.36,9-3.62,13.78-.6-2.75-1.09-4.68-1.43-6.63-1.32-7.57-1.5-7.76-9.72-8.29C41.81,30.56,41,35,40.27,39.45L39,39.54c-.16-3.7-1-7.58-.19-11,.5-2,3.5-4.15,5.8-4.88,3.91-1.23,8.18-1.24,12.25-2,3.85-.75,5.38.34,4.5,4.41C60.9,27.92,61.05,29.94,60.88,33Z" style="fill:#fff"/><path d="M41.08,81.07V50.75C45.86,61.39,44.56,71.22,41.08,81.07Z" style="fill:#fff"/><path d="M22.32,64.1c.44.61,1.18,1.17,1.27,1.83C24.42,72,25.2,78.17,25.8,84.31c.08.84-.94,1.78-1.46,2.67-.66-.78-1.85-1.52-1.91-2.34-.48-6.71-.75-13.43-1.09-20.14Z" style="fill:#fff"/><path d="M85.85,58.94c-1.27,2.83-1.84,4.5-2.73,6a39.85,39.85,0,0,1-3.06,4c-.56-.7-1.68-1.49-1.58-2.09a16.89,16.89,0,0,1,1.83-6.21C80.87,59.68,83,59.73,85.85,58.94Z" style="fill:#fff"/><path d="M93.34,66.52c0-2.23-.3-4.51.13-6.64.19-1,1.85-1.6,2.84-2.38.26,1.08,1,2.3.68,3.21a49.08,49.08,0,0,1-2.75,6Z" style="fill:#fff"/><path d="M30.29,65.07,29.17,77l-.77,0V65Z" style="fill:#fff"/><path d="M39,84.54c-4.25-1.87-4.32-4-.58-10.92Z" style="fill:#fff"/><path d="M85,68.42c1.4-2.81,2.49-5,3.88-7.79C90.81,67.65,90.43,68.49,85,68.42Z" style="fill:#fff"/></g></g></svg>