<svg xmlns="http://www.w3.org/2000/svg" viewBox="0 0 284.81 192.1"><title>Asset 1</title><g id="Layer_2" data-name="Layer 2"><g id="Manon"><path d="M100.2,155.94c-4.2,1.59-7.65,2.73-12.17,2.84s-9.31.24-14,.34c-9.31.19-18.62.31-27.93.25-8.18-.06-17.36.75-25.22-1.86-2.53-.84-4.07-2.41-6.68-1.83-4.48,1-6.81,5-12,2.55v2.59c17.8-8.19,31.35-25.77,42.1-41.74C56.37,101.24,66,82,75.91,62.92c4.78-9.22,9.43-18.56,14.68-27.53s11.31-19,19.92-25c9.17-6.4,21.64-8.32,32.56-7,10.21,1.22,22.37,5.12,30.5,11.59,9.64,7.68,12.72,22.43,16.55,33.53.93,2.69,1.69,5.81,3.49,8.08,1.93,2.43,5,3.8,7.69,5.23l.35-2.74c-1.72.3-3.43.58-5.16.83a1.49,1.49,0,0,0-1.05,1.84A90.92,90.92,0,0,0,209.16,86.4c6.45,8.31,14.36,15.38,21.54,23,7.77,8.26,15.57,16.42,24.31,23.67,4.42,3.67,8.9,7.28,13.37,10.89,4.72,3.82,10.35,7.4,13.64,12.57l.54-2.06c-4.7,2.54-9,5.24-14.37,6.07-5,.77-10.12.32-15.17-.09-4.15-.34-8.27-.68-12.39.18-5.68,1.2-10.87,2.37-16.75,2.26-5.23-.1-10.44-.71-15.67-1-5.78-.29-11.56.08-17.34.16-5.31.06-10.64,0-16,.1-2.94.06-6.56-.17-9.39.84-4.85,1.74-6.25,8.84-8.58,12.8s-5.51,9.8-9.68,12c-3.71,1.93-8.83,1.37-12.76.5-20.47-4.56-26.71-29.94-31.9-47.1-7-23.21-8.85-47-11.9-71a1.51,1.51,0,0,0-2.79-.76C67.24,99,47.19,129.31,19.52,152.81a1.51,1.51,0,0,0,.66,2.51c26.44,6.5,53.31,2.7,80.09,1.21l-1.45-1.1.34,2.35c.27,1.9,3.16,1.09,2.89-.8l-.33-2.34a1.51,1.51,0,0,0-1.45-1.11c-26.5,1.47-53.13,5.33-79.29-1.1l.66,2.51C49.5,131.27,69.69,100.68,90.5,71l-2.8-.76c2.83,22.22,4.35,44.56,10.39,66.23,5,17.76,10.11,39.81,26.39,50.8a28.41,28.41,0,0,0,20.76,4.35c7.69-1.57,12.66-10.84,15.93-17.24,1.3-2.53,2.33-7.14,5.15-8.43,3.88-1.79,10.49-.76,14.58-.78,11.91,0,23.72-.5,35.61.36,6,.43,12,.72,17.9-.27,3.29-.54,6.42-1.81,9.76-2.11a53.44,53.44,0,0,1,8.85.33c5.25.43,10.54.86,15.77.05,5.77-.91,10.23-3.72,15.28-6.44a1.52,1.52,0,0,0,.54-2.05c-2.72-4.27-6.47-7-10.39-10.15-4.22-3.42-8.45-6.83-12.65-10.26a263.77,263.77,0,0,1-24.88-23.21c-14.79-15.63-30.76-29.77-38.36-50.5l-1.05,1.85c1.73-.25,3.45-.53,5.17-.83a1.51,1.51,0,0,0,.36-2.74c-2.68-1.44-5.87-2.74-7.48-5.46-2.46-4.15-3.49-9.56-5.06-14.09-3.07-8.84-6.23-18.79-13.08-25.52C170.85,7.92,160.34,4.23,151.9,2a56.81,56.81,0,0,0-29.54-.11C102.49,7.32,92.1,25.82,83,42.89,72.42,62.73,62.69,83.05,51.27,102.42a240.2,240.2,0,0,1-21.58,31.42,127.37,127.37,0,0,1-13.25,13.44c-2.24,2-4.49,4-6.76,6-2.78,2.41-5.64,3.44-8.94,5a1.5,1.5,0,0,0,0,2.59c2.72,1.27,5,1.7,7.87.69,3.86-1.34,5.39-3.25,9.59-1.82,7.82,2.67,15.75,2.53,23.94,2.64,10.64.14,21.28,0,31.92-.21,5.32-.11,10.66-.14,16-.39,4.11-.19,7.16-1.46,11-2.9C102.79,158.15,102,155.25,100.2,155.94Z"/><path d="M184.94,53.12l2.16.71L186,52.38c-1.44,16.67-2.7,33-6.1,49.44a343,343,0,0,1-12.83,46.25c-1,2.74-4,7.9-1.89,10.85s8,2,11,2c16.52.11,33.27,1.45,49.77.6,9.13-.48,18.27-.53,27.4-1,8.46-.44,16.1-2.64,24.27-4.69a1.5,1.5,0,0,0,.66-2.5c-13.33-11-26.87-21.94-39.22-34.1-2.86-2.81-5.28-6-8.15-8.84-3.1-3-6.67-5.57-9.82-8.56a106.18,106.18,0,0,1-14.88-17.62,125.42,125.42,0,0,1-10.5-19c-3.08-6.91-4.93-14.46-9-20.88-6.89-10.81-18.09-17.08-29.28-22.62a1.52,1.52,0,0,0-2.26,1.3c.44,5.78.74,11.69,2.36,17.28a30.92,30.92,0,0,0,3.08,7.22c1.73,2.9,4.26,5.18,5.22,8.51l.69-1.69c-4.66,2-11.11.18-16-1a50.81,50.81,0,0,1-14.35-5.67c-8.71-5.22-13.71-13.63-19.78-21.44a1.5,1.5,0,0,0-2.35.3c-6.64,11-13.35,22-19.83,33.11-2.18,3.74-3.57,6.87-3.28,11.27.47,6.94,1.81,13.94,2.57,20.86,1.33,12.17,2.65,24.38,5.53,36.3,2.77,11.48,7,22.93,11.53,33.85,5.51,13.41,15.7,30.46,33,25.75,8.25-2.25,11.9-9.2,15-16.53,4.77-11.1,7.57-23.16,11-34.73,4.09-13.94,8.37-28,11.13-42.27,1.2-6.21,1.91-12.5,2.5-18.78.35-3.71.65-7.43,1-11.14.36-4,.28-8.31,2.46-11.77,1-1.63-1.56-3.14-2.59-1.51-2.28,3.62-2.3,7.18-2.7,11.42-.53,5.57-.94,11.14-1.52,16.7-1.23,11.76-3.9,23.12-6.94,34.53-2.87,10.75-6,21.42-9.21,32.08s-5.46,22.66-11.57,32c-4.43,6.82-12.54,9.16-20.11,6.54-9-3.11-13.68-12.18-17.34-20.33A217.05,217.05,0,0,1,97.31,99.16C96.6,93,96,86.81,95.24,80.65c-.32-2.6-.69-5.19-1-7.79-.61-4.79.21-7.69,2.57-11.73C103.27,50,110,39.05,116.62,28l-2.36.3c7.36,9.48,13.31,18.88,24.6,24.14,7.87,3.67,20.74,8.06,29.12,4.43a1.51,1.51,0,0,0,.68-1.7c-1.56-5.41-6-8.9-7.85-14.3-2-5.72-2.25-11.92-2.7-17.91l-2.25,1.3c12.51,6.19,24.84,13.32,30.92,26.54,3,6.59,5.09,13.56,8.28,20.11a120.74,120.74,0,0,0,11.2,18.61A108.83,108.83,0,0,0,220.09,105c2.81,2.58,5.94,4.81,8.66,7.48,2.87,2.8,5.28,6,8.15,8.85,12.36,12.13,25.89,23.06,39.22,34.09l.66-2.51c-9.3,2.33-17.77,4.43-27.42,4.74-9.06.3-18.19.88-27.25.95-9.77.08-19.57-.32-29.34-.49q-6.86-.12-13.7-.19c-2.49,0-9.91,1.14-11.14-1.31s2.43-8.87,3.29-11.35q2.15-6.24,4-12.57,3.9-13.08,6.77-26.43c3.89-17.94,5.4-35.67,7-53.92a1.52,1.52,0,0,0-1.11-1.44l-2.15-.71C183.9,49.63,183.11,52.53,184.94,53.12Z"/><path d="M49.19,115.66l1.3,1.06a1.52,1.52,0,0,0,2.12,0c6.27-7.07,11.41-15,16.84-22.7,6.08-8.65,12.16-17.32,18.13-26C93.25,59.7,99,51.45,103.81,42.66c4.61-8.39,8.94-16.89,13.79-25.15l-2.74-.36c3.25,9.61,8.06,18.88,16,25.48,7.66,6.4,17.08,9.31,26.89,10.26,1,.1,1.63-1,1.45-1.9-1.19-5.71-2.52-11.4-3.47-17.16-.53-3.17-1-6.36-1.34-9.55-.35-2.91-1.61-7.32.56-9.66H152.8c3.83,3.81,7.28,7.85,12.2,10.2,6.2,2.95,12,6.76,17.86,10.3a1.52,1.52,0,0,0,2.06-2c-3.47-7.13-7.31-13.88-13.85-18.71-6.8-5-15.52-7.85-23.78-9.21-13.19-2.17-29.9-2.6-39.65,8.22C101.65,20,96.88,28.42,92,35.9c-5.16,8-9.78,16.2-14.27,24.54C68.15,78.25,58.84,96.18,49,113.84c-1,1.69,1.64,3.21,2.59,1.52,16.88-30.2,31.64-61.63,51.3-90.17,4.87-7.06,9.06-13.71,17.63-16.46,6.83-2.19,14.34-2,21.4-1.28,8.64.84,17.47,3.17,24.93,7.72s11.77,11.7,15.52,19.41l2-2c-5.06-3-10-6.38-15.27-9.13-2.62-1.37-5.21-2.33-7.49-4.3s-4.5-4.41-6.7-6.61a1.53,1.53,0,0,0-2.12,0c-4.07,4.41-1.59,11-.84,16.52,1.06,7.67,2.74,15.2,4.31,22.77l1.45-1.89c-9.39-.91-18.47-3.83-25.65-10.14s-11.36-14.65-14.32-23.4A1.52,1.52,0,0,0,115,16c-4.54,7.73-8.65,15.66-12.92,23.54a292.51,292.51,0,0,1-16,25.33C80.3,73.34,74.41,81.75,68.52,90.15S57.21,107,50.49,114.6h2.12l-1.3-1.06C49.83,112.33,47.69,114.44,49.19,115.66Z"/><path d="M187.34,48.59c7.42,21.3,21.62,46.22,39.94,60.6,4,3.15,6.94,7.59,10.68,11.11,6.64,6.27,13.44,12.38,20.33,18.39,5.73,5,11.69,9.73,18.89,15.71-6.75,1.64-12.28,3.64-17.95,4.2-8.52.84-17.14.64-25.72.94-3.8.14-7.6.65-11.4.6-16.3-.18-32.6-.66-48.9-.72-7.35,0-8.48-.69-6-7.4,7.92-21.29,16.38-81.11,20.12-103.43" style="fill:#534741"/><path d="M185.89,49c7.25,20.48,18.3,40.63,34.07,55.8,4.08,3.92,8.5,7.27,12.26,11.53A184.88,184.88,0,0,0,247,130.66c9.48,8.56,19.31,16.66,29.15,24.8l.66-2.51c-9.26,2.32-17.79,4.43-27.42,4.74s-19.51,1-29.21.93-19.56-.34-29.34-.5q-6.84-.12-13.69-.18c-2.78,0-9.57,1.3-9.37-2.66.11-2.11,1.58-4.66,2.23-6.7.72-2.29,1.36-4.6,2-6.92,1.47-5.62,2.72-11.31,3.9-17,2.66-12.91,4.9-25.91,7-38.91,2-12.25,3.85-24.52,5.89-36.76.32-1.89-2.57-2.7-2.89-.8-4.38,26.27-8,52.68-13.58,78.74-1.27,6-2.62,11.92-4.31,17.78-1,3.62-4.54,9.49-3.31,13.21,1.42,4.31,9.26,3,12.43,3,11.08.09,22.17.34,33.25.53,11.71.2,23.33-.44,35-.68a127.74,127.74,0,0,0,15.77-.93c5.57-.82,11-2.65,16.41-4a1.5,1.5,0,0,0,.66-2.5c-9.33-7.73-18.67-15.4-27.69-23.5s-17.21-17-26.23-25.09c-16.63-14.92-28.15-35.69-35.54-56.56-.64-1.81-3.54-1-2.89.8Z"/><path d="M183.34,42.59c-.6,1.08.42,11.21.28,12.35-1.69,14.14-2,28.59-5.15,42.39-5,21.66-11.73,42.91-17.94,64.27A108.21,108.21,0,0,1,155,175.49c-7.18,15.91-25.77,13.43-33.85,2.71-8.21-10.9-11.65-23.7-16.32-36.15C96.14,118.89,96,94.42,92.37,70.5a12.66,12.66,0,0,1,1.68-7.63c7.06-12.2,14.43-24.22,21.27-35.6,4.43,5.58,8.44,12.51,14.17,17.43,9.6,8.24,21.72,11.16,34.21,12.09,1.14.08,2.34-.77,3.52-1.19-.48-1.31-.6-3-1.5-3.88-7.84-7.9-8.57-18.36-9.38-29.13,10.79,5.32,20.54,10.85,27.28,20" style="fill:#ffef9f"/><path d="M181.89,42.19c-1.49,4.89.36,11.28-.18,16.44-1.28,12.18-1.77,24.48-4.29,36.5-2.47,11.78-5.81,23.41-9.16,35s-6.31,23.35-10.34,34.65c-3.28,9.22-7.63,20.15-19,20.57-9.48.36-15.91-6.11-20.38-13.72-5.76-9.83-9.16-21-12.94-31.74-4.12-11.65-6.25-23.84-7.77-36.07C97,97,96.35,90.21,95.56,83.42c-.72-6.25-3.09-14-.22-19.8C101.4,51.34,109.56,39.76,116.62,28l-2.36.3c7.36,9.48,13.31,18.88,24.6,24.14,7.87,3.67,20.74,8.06,29.12,4.43a1.51,1.51,0,0,0,.68-1.7c-1.58-5.46-6-9-7.95-14.44-2-5.82-2.41-12.07-2.87-18.17l-2.26,1.29c10,4.95,19.84,10.43,26.75,19.43,1.16,1.51,3.77,0,2.59-1.52-7.27-9.45-17.3-15.28-27.83-20.5a1.51,1.51,0,0,0-2.25,1.3c.44,5.86.83,11.85,2.51,17.51a32.14,32.14,0,0,0,3.17,7.35c1.74,2.91,4.28,5.21,5.25,8.55l.69-1.69c-4.66,2-11.11.18-16-1a50.81,50.81,0,0,1-14.35-5.67c-8.71-5.22-13.71-13.63-19.78-21.44a1.5,1.5,0,0,0-2.35.3C107,38.26,98.89,49.84,92.75,62.11c-2.12,4.24-1.92,7.9-1.29,12.47,1,7.25,1.72,14.53,2.54,21.81,2.77,24.85,8.33,49.59,19.52,72.15,3.94,7.93,8.92,15.62,17.67,18.59A20.15,20.15,0,0,0,150,184.4c8.48-6.58,11.22-20,14.09-29.72,3.79-12.8,7.68-25.58,11.16-38.47a249.41,249.41,0,0,0,8.07-42.73c.59-6.44,1.82-13.22,1.76-19.68,0-3.28-1.29-7.64-.33-10.81.57-1.85-2.33-2.64-2.89-.8Z"/><path d="M50.25,114.6c3.87-6.93,7.83-13.81,11.59-20.81,8.26-15.38,16-31,24.73-46.16C92.68,37,99.84,27,106.79,16.85c6-8.68,15.83-11.2,25-11.31,12.87-.16,26,2.07,37.25,9.24,3.87,2.47,6.95,6.4,9.86,10.07,2,2.52,3.07,5.76,4.71,9-5.32-3.19-10.26-6.22-15.27-9.12-1.85-1.07-4.09-1.54-5.76-2.81a73.36,73.36,0,0,1-6.49-6.12c-.76-.73-1.49-1.48-2.24-2.21-.66.85-2,1.76-1.88,2.55.59,6.05,1.28,12.11,2.27,18.12.93,5.63,2.25,11.19,3.47,17.16C136,49.53,123.17,37.61,116.3,16.75c-1.92,3.29-3.16,5.32-4.31,7.4-5.31,9.59-10,19.6-16,28.71-12.75,19.24-26.2,38-39.42,56.94a73,73,0,0,1-5,5.86Z" style="fill:#534741"/><path d="M51.55,115.36c16.88-30.2,31.64-61.63,51.3-90.17,4.87-7.06,9.06-13.71,17.63-16.46,6.83-2.19,14.34-2,21.4-1.28,8.64.84,17.47,3.17,24.93,7.72s11.77,11.7,15.52,19.41l2-2c-5.06-3-10-6.38-15.27-9.13-2.62-1.37-5.21-2.33-7.49-4.3s-4.5-4.41-6.7-6.61a1.53,1.53,0,0,0-2.12,0c-4.07,4.41-1.59,11-.84,16.52,1.06,7.67,2.74,15.2,4.31,22.77l1.45-1.89c-9.39-.91-18.47-3.83-25.65-10.14s-11.36-14.65-14.32-23.4A1.52,1.52,0,0,0,115,16c-4.54,7.73-8.65,15.66-12.92,23.54a292.51,292.51,0,0,1-16,25.33C80.3,73.34,74.41,81.75,68.52,90.15S57.21,107,50.49,114.6h2.12l-1.3-1.06c-1.48-1.21-3.62.9-2.12,2.12l1.3,1.06a1.52,1.52,0,0,0,2.12,0c6.27-7.07,11.41-15,16.84-22.7,6.08-8.65,12.16-17.32,18.13-26C93.25,59.7,99,51.45,103.81,42.66c4.61-8.39,8.94-16.89,13.79-25.15l-2.74-.36c3.25,9.61,8.06,18.88,16,25.48,7.66,6.4,17.08,9.31,26.89,10.26,1,.1,1.63-1,1.45-1.9-1.19-5.71-2.52-11.4-3.47-17.16-.53-3.17-1-6.36-1.34-9.55-.35-2.91-1.61-7.32.56-9.66H152.8c3.83,3.81,7.28,7.85,12.2,10.2,6.2,2.95,12,6.76,17.86,10.3a1.52,1.52,0,0,0,2.06-2c-3.47-7.13-7.31-13.88-13.85-18.71-6.8-5-15.52-7.85-23.78-9.21-13.19-2.17-29.9-2.6-39.65,8.22C101.65,20,96.88,28.42,92,35.9c-5.16,8-9.78,16.2-14.27,24.54C68.15,78.25,58.84,96.18,49,113.84,48,115.53,50.6,117.05,51.55,115.36Z"/><polygon points="79.85 89.94 84.99 82.85 79.85 89.94 79.85 89.94" style="fill:#534741"/><path d="M81.15,90.7l5.14-7.09c1.13-1.56-1.47-3.06-2.59-1.51l-5.14,7.08c-1.14,1.57,1.46,3.06,2.59,1.52l5.14-7.09c1.13-1.56-1.47-3.06-2.59-1.51l-5.14,7.08C77.42,90.75,80,92.24,81.15,90.7Z"/><polygon points="69.94 103.36 60.34 117.59 71.68 101.2 69.94 103.36 69.94 103.36" style="fill:#534741"/><path d="M68.64,102.6,59,116.83c-1.08,1.61,1.5,3.09,2.59,1.52L73,102c1-1.38-1.28-3.15-2.35-1.82l-1.75,2.16c-1.2,1.49.91,3.62,2.13,2.12l1.74-2.16-2.36-1.81L59,116.83l2.59,1.52,9.6-14.24C72.31,102.51,69.71,101,68.64,102.6Z"/><polygon points="79.85 89.94 71.68 101.2 79.85 89.94 79.85 89.94" style="fill:#534741"/><path d="M78.56,89.18l-8.18,11.27C69.25,102,71.85,103.51,73,102L81.15,90.7c1.13-1.57-1.47-3.07-2.59-1.52l-8.18,11.27L73,102,81.15,90.7C82.28,89.13,79.68,87.63,78.56,89.18Z"/><path d="M60.55,117.61l-31.8,33.76h71.43l-1.72-5.27,1,1.45-1.9-4.44.53,1.1-1.63-4.82,1.43,2.73-2.4-6.4,1.09,2.87L94,129.54l1,2.05-1.42-3.89,1.31,2.76L86.91,80.52l-1.84,2.82" style="fill:#534741"/><path d="M59.49,116.55l-31.8,33.76a1.52,1.52,0,0,0,1.06,2.56h71.43a1.52,1.52,0,0,0,1.45-1.9L99.9,145.7l-2.74,1.16,1,1.45a1.5,1.5,0,0,0,2.59-1.51l-1.91-4.44-2.59,1.51.53,1.1c.74,1.52,3.29.45,2.75-1.16L97.91,139l-2.74,1.16,1.43,2.73c.77,1.48,3.35.45,2.74-1.16l-2.4-6.39-2.9.79L95.13,139c.67,1.77,3.44,1.1,2.89-.79l-2.6-9.06-2.74,1.16,1,2c.73,1.52,3.32.45,2.74-1.16L95,127.31l-2.74,1.15,1.31,2.75c.78,1.66,3,.39,2.74-1.15l-8-49.94c-.22-1.37-2.11-1.34-2.74-.36l-1.83,2.82c-1,1.62,1.54,3.13,2.59,1.51l1.83-2.82-2.74-.35,7.94,49.94,2.75-1.16L94.84,127c-.72-1.52-3.33-.45-2.74,1.15L93.51,132l2.74-1.15-1-2.06c-.75-1.55-3.21-.45-2.75,1.16L95.13,139,98,138.2l-1.08-2.87c-.68-1.79-3.58-1-2.9.79l2.41,6.4,2.74-1.16-1.43-2.73A1.51,1.51,0,0,0,95,139.79l1.62,4.82,2.74-1.15-.53-1.1c-.85-1.77-3.33-.22-2.59,1.51l1.91,4.44,2.59-1.51-1-1.46c-.91-1.32-3.3-.56-2.74,1.16l1.72,5.27,1.45-1.9H28.75l1.06,2.56,31.8-33.76c1.32-1.41-.79-3.53-2.12-2.12Z"/></g></g></svg>